<svg id="Capa_1" enable-background="new 0 0 512 512" height="512" viewBox="0 0 512 512" width="512" xmlns="http://www.w3.org/2000/svg"><g><g><path clip-rule="evenodd" d="m324.097 125.489 101.112 97.265 19.724 18.982 7.255 6.98c2.324 2.213 6.036 2.128 8.247-.17l19.922-20.77 18.25-19.01c7.991-8.342 7.736-21.706-.595-29.707l-17.655-16.968-97.91-94.201c-8.332-8.001-21.679-7.746-29.67.596l-38.172 39.78c-2.239 2.327-2.154 6.044.17 8.257z" fill="#fe636e" fill-rule="evenodd"/></g><g><path clip-rule="evenodd" d="m183.736 131.703-108.65 104.5c3.429 28.856 8.842 55.868 26.695 70.991l147.332 119.652 17.825 13.705c26.837 20.628 52.256-8.2 31.853-29.509-.283-.312-.595-.624-.907-.936 6.886 5.788 14.623 7.434 21.396 6.327 14.906-2.412 25.108-18.188 11.392-32.914 26.808 21.394 49.706-12.683 28.707-31.381 23.408 7.377 48.912-22.954 24.598-48.718-.17-.199-.368-.426-.567-.624l-60.956-90.683-81.757-52.35z" fill="#ffbc85" fill-rule="evenodd"/></g><g><path clip-rule="evenodd" d="m246.903 429.401c22.671-24.146-10.4-51.924-28.679-35.552l-19.582 18.613c-.227.227-.425.426-.652.596-16.436 16.514 13.432 54.137 38.144 27.806z" fill="#ffe5c1" fill-rule="evenodd"/></g><g><path clip-rule="evenodd" d="m184.076 360.169-20.687 21.678-.085.113c-10.372 11.009-3.174 27.891 9.097 34.474 7.595 4.086 17.116 4.256 25.59-3.376l22.161-.34-1.927-18.869 2.834-2.667c22.161-21.053-9.833-57.429-34.8-33.311z" fill="#ffe5c1" fill-rule="evenodd"/></g><g><path clip-rule="evenodd" d="m147.123 330.461-19.384 20.571-2.721 2.922c-19.129 20.287 15.133 52.236 34.885 31.523l3.401-3.518c.283-.312 21.056-2.469 23.323-2.724l-.368-21.365 6.631-6.952c22.813-23.919-12.837-55.414-34.545-32.346z" fill="#ffe5c1" fill-rule="evenodd"/></g><g><path clip-rule="evenodd" d="m101.781 307.195-6.575 7.122c-20.234 21.961 9.918 56.975 32.533 36.716l18.562-2.866.822-17.705c18.335-20.741-13.631-57.656-38.795-30.36z" fill="#ffe5c1" fill-rule="evenodd"/></g><g><path clip-rule="evenodd" d="m129.553 70.075-89.975 86.568-25.59 24.6c-8.332 8.001-8.587 21.365-.595 29.707l38.172 39.78c2.21 2.298 5.923 2.383 8.247.17l15.274-14.698 108.65-104.501 13.489-12.995c2.324-2.213 2.409-5.93.17-8.257l-38.172-39.78c-7.991-8.34-21.339-8.595-29.67-.594z" fill="#7bacdf" fill-rule="evenodd"/></g><g><path clip-rule="evenodd" d="m300.661 220.57-27.318 6.242 10.712 10.867 82.749 82.227.567.624c9.975 10.555 11.562 21.848 8.388 31.041 16.351-6.242 26.752-28.516 8.218-48.15l-.567-.624-24.825-24.657z" fill="#f5a96c" fill-rule="evenodd"/></g><g><path clip-rule="evenodd" d="m183.736 131.703-17.4 16.712 54.382 26.813 19.979-15.464z" fill="#f5a96c" fill-rule="evenodd"/></g><g><path clip-rule="evenodd" d="m240.697 159.764-19.979 15.464-18.817 14.527c-47.524 36.772-8.105 73.091 20.092 60.635l31.711-19.096 19.639-4.483 27.318-6.242 57.924 57.57 24.825 24.657c15.615-5.845 37.69-22.699 61.523-61.06l-120.836-116.247-21.707 17.336c-3.571 2.837-2.494 2.298-7 2.156-16.295-.511-37.01 1.107-49.167 10.498z" fill="#ffe5c1" fill-rule="evenodd"/></g><g><path clip-rule="evenodd" d="m240.612 218.668-31.711 19.096c-8.643 3.83-18.363 3.064-26.298-.908 6.886 13.222 24.683 20.032 39.391 13.534l31.711-19.096 19.639-4.483 26.978-6.157c-12.497-10.697-14.736-12.257-40.099-6.441z" fill="#fed1a3" fill-rule="evenodd"/></g><g><path clip-rule="evenodd" d="m425.209 222.754c-21.226 34.134-41.034 51.243-56.139 58.734-1.7.851-3.344 1.561-4.931 2.156l19.27 19.152c15.615-5.845 37.69-22.699 61.523-61.06z" fill="#fed1a3" fill-rule="evenodd"/></g><g><path clip-rule="evenodd" d="m472.903 154.884v.028zm-17.74 48.633-19.922 20.798c-2.239 2.298-5.923 2.383-8.247.142l17.938 17.28 7.255 6.98c2.324 2.213 6.036 2.128 8.247-.17l19.922-20.77 18.25-19.01c7.991-8.342 7.736-21.706-.595-29.707l-22.331-21.48 1.899 1.844-4.676-4.511c8.218 8.001 8.473 21.309.51 29.594z" fill="#fb2a39" fill-rule="evenodd"/></g><g><path clip-rule="evenodd" d="m98.777 99.697c8.332-7.916 21.594-7.604 29.557.681l38.172 39.78c2.21 2.327 2.154 6.044-.17 8.257l17.4-16.712 13.489-12.995c2.324-2.213 2.409-5.93.17-8.257l-38.172-39.78c-7.991-8.342-21.339-8.597-29.67-.596z" fill="#3987d0" fill-rule="evenodd"/></g><g><path clip-rule="evenodd" d="m88.547 331.114c.198 18.585 21.906 35.41 39.192 19.918l12.157-12.882 7.226-7.689c7.566-8.569 6.546-19.862 1.02-28.289-.028 4.937-1.672 9.874-5.441 14.159l-12.866 13.648-6.49 6.923c-12.609 11.264-27.543 5.391-34.798-5.788z" fill="#fed1a3" fill-rule="evenodd"/></g><g><path clip-rule="evenodd" d="m120.286 373.277c4.534 15.208 25.703 26.813 39.617 12.201l3.401-3.518c.028-.057.057-.085.085-.113l20.687-21.678c.737-.823 1.445-1.589 2.182-2.298l6.631-6.952c12.299-12.882 7.623-27.977-2.721-35.552 1.87 6.952.368 14.981-6.603 22.273l-6.631 6.952c-.737.709-1.445 1.475-2.182 2.27v.028l-20.687 21.678c-.028.028-.057.057-.113.085l-3.372 3.547c-9.238 9.703-21.651 7.859-30.294 1.077z" fill="#fed1a3" fill-rule="evenodd"/></g><g><path clip-rule="evenodd" d="m198.642 412.461 15.104-14.329 4.477-4.284 2.834-2.667c11.789-11.208 8.247-26.757-1.445-35.212 2.069 7.406.538 15.776-6.603 22.557l-2.806 2.667-7.991 7.576-11.619 11.066-.652.567c-8.473 7.633-17.995 7.462-25.59 3.405-1.87-1.021-3.627-2.27-5.214-3.717 1.87 6.725 6.886 12.938 13.262 16.343 7.595 4.086 17.116 4.256 25.59-3.376z" fill="#fed1a3" fill-rule="evenodd"/></g><g><path clip-rule="evenodd" d="m246.903 429.401c11.335-12.087 8.728-25.054 1.02-32.97-.17 5.363-2.437 11.123-7.651 16.655l-10.769 11.491c-13.234 14.073-27.942 9.846-36.217.34.113 17.223 23.124 36.971 42.848 15.946z" fill="#fed1a3" fill-rule="evenodd"/></g><g><path d="m298.874 418.656c-1.841 0-3.688-.669-5.142-2.021l-15.388-14.3c-3.058-2.841-3.233-7.623-.391-10.68 2.841-3.058 7.623-3.233 10.68-.391l15.388 14.3c3.058 2.841 3.233 7.623.392 10.68-1.49 1.601-3.512 2.412-5.539 2.412z"/></g><path d="m503.249 173.612-115.568-111.172c-5.494-5.277-12.742-8.08-20.376-7.935-7.632.159-14.729 3.268-19.982 8.75l-38.198 39.807c-5.092 5.36-4.896 13.854.409 18.908l3.112 2.994-15.678 12.523c-.391-.021-.834-.041-1.341-.058-24.483-.762-42.662 3.295-54.027 12.074l-1.803 1.395-43.074-21.22 5.712-5.495c2.592-2.468 4.062-5.803 4.141-9.392.078-3.592-1.249-6.994-3.729-9.57l-38.167-39.778c-5.255-5.486-12.352-8.594-19.984-8.754-7.672-.185-14.884 2.657-20.382 7.939l-115.56 111.165c-11.345 10.896-11.712 29.013-.813 40.391l38.178 39.786c2.616 2.72 6.124 4.091 9.645 4.091 3.335 0 6.681-1.231 9.287-3.713l4.528-4.356c3.202 20.378 8.706 40.952 21.678 55.462l-1.608 1.742c-13.708 14.88-9.444 34.733 1.529 45.859 6.048 6.134 13.4 9.331 20.809 9.562-.99 9.504 3.365 19.014 10.349 25.636 6.128 5.811 14.323 9.536 22.658 9.535 2.072 0 4.153-.239 6.213-.725 1.172 6.743 4.69 13.155 9.474 17.952 5.747 5.762 13.833 9.778 22.445 9.778.881 0 1.768-.044 2.658-.13.115 1.655.372 3.338.791 5.041 2.924 11.888 12.556 21.884 23.968 24.873 1.906.499 4.363.925 7.199.925 6.629 0 15.328-2.325 23.901-11.463l8.402-8.944 12.288 9.447c8.041 6.183 16.016 8.706 23.176 8.706 8.992 0 16.7-3.979 21.636-9.685 4.692-5.423 7.484-13.12 6.449-21.35 9.444.481 18.352-3.16 24.105-9.227 4.257-4.489 7.035-10.603 6.985-17.305 9.786 1.03 18.329-3.147 23.613-9.414 6.086-7.218 8.806-17.974 5.349-28.182 9.031-1.949 17.309-7.664 22.591-16.258 5.93-9.647 8.114-24.027-.955-38.233 13.579-7.486 31.37-22.429 51.037-52.033l.656.629c2.589 2.465 5.92 3.69 9.248 3.69 3.522 0 7.04-1.374 9.663-4.101l38.177-39.784c10.894-11.375 10.527-29.492-.814-40.383zm-402.49 145.83 13.125-14.219c5.369-5.827 11.242-8.211 16.993-6.896 6.03 1.38 11.403 6.661 13.369 13.142.948 3.123 1.798 9.148-3.158 14.4-.006.006-.01.013-.016.019l-18.404 19.539c-7.746 6.917-15.786 4.027-20.731-.986-6.028-6.113-8.966-16.545-1.178-24.999zm31.975 59.842c-1.146-1.087-10.947-10.887-2.217-20.145l.003-.003 33.328-35.385c4.14-4.399 8.399-5.668 11.934-5.668 1.313 0 2.527.176 3.596.43 5.946 1.416 11.06 6.149 12.726 11.779 1.551 5.243-.068 10.572-4.681 15.41l-7.033 7.368c-.358.358-.709.735-1.06 1.11l-24.896 26.083c-7.748 8.125-17.286 3.209-21.7-.979zm38.648 27.059c-4.298-4.31-8.518-13.002-2.527-19.278.067-.07.123-.145.187-.216l20.36-21.331c.116-.115.233-.227.343-.351.071-.081.144-.154.216-.234l1.316-1.379c5.066-5.014 10.599-6.994 16.112-5.71 6.072 1.412 11.298 6.573 13.004 12.844 1.055 3.879 1.125 9.632-4.538 15.013l-2.485 2.359c-.062.055-.125.104-.187.159-.161.144-.31.297-.456.452l-19.005 18.042c-.064.055-.132.103-.195.16-.131.119-.249.246-.377.367-10.364 9.511-19.939.937-21.768-.897zm59.241 29.35c-5.258 5.603-10.732 7.705-16.252 6.262-6.015-1.576-11.533-7.405-13.122-13.862-.696-2.827-.852-6.775 2.177-9.772.139-.128.279-.248.418-.38l19.6-18.608c5.903-5.092 14.192-2.618 19.051 2.36 2.399 2.455 9.409 11.338-1.101 22.532zm152.737-99.781c-3.83 6.231-11.848 11.22-20.217 9.407l-28.825-26.831c-3.056-2.844-7.837-2.672-10.681.383-2.843 3.055-2.672 7.837.383 10.681l30.209 28.118c.029.027.06.049.089.075.013.012.022.026.035.037 7.453 6.637 6.844 15.458 2.389 20.741-5.056 5.997-12.966 5.695-21.187-.782l-29.972-27.9c-3.056-2.845-7.837-2.672-10.681.383-2.843 3.055-2.672 7.837.383 10.681l29.991 27.918c5.208 5.661 5.731 11.254 1.455 15.763-5.084 5.36-15.22 7.089-23.99-.269-3.116-2.613-7.74-2.292-10.465.724-2.726 3.018-2.575 7.651.342 10.485 8.232 7.998 6.813 15.851 3.097 20.147-4.519 5.221-13.743 6.901-24.17-1.113l-12.424-9.552c6.223-12.785 2.279-25.593-5.81-33.876-4.727-4.838-11.214-8.368-18.111-9.442 1.198-4.798 1.163-9.88-.223-14.971-3.173-11.659-12.658-20.922-24.164-23.597-1.426-.332-2.858-.553-4.288-.669 1.619-5.367 1.692-10.984.074-16.45-3.2-10.815-12.511-19.525-23.719-22.193-8.36-1.987-16.735-.392-23.873 4.362-.097-.364-.185-.727-.295-1.091-3.544-11.678-13.146-20.897-24.461-23.486-11.177-2.556-22.354 1.486-31.474 11.382l-1.213 1.314c-10.641-12.657-15.34-32.256-18.535-57.235l31.871-30.659c3.008-2.893 3.101-7.677.207-10.685-2.892-3.008-7.676-3.101-10.685-.207l-34.202 32.902c-.265.222-.512.461-.744.716l-13.651 13.132-36.973-38.529c-5.137-5.363-4.969-13.9.377-19.035l115.558-111.166c2.581-2.478 5.997-3.804 9.594-3.726 3.592.075 6.925 1.531 9.39 4.103l36.984 38.542-62.417 60.047c-3.008 2.894-3.101 7.678-.207 10.685 2.893 3.008 7.677 3.1 10.685.207l46.324-44.565 41.348 20.37-29.211 22.59c-35.023 27.099-24.47 51.489-20.401 58.318 6.942 11.653 19.841 18.38 33 18.38 5.13 0 10.3-1.023 15.171-3.175.29-.128.572-.274.844-.438l30.674-18.472 41.721-9.528 79.756 79.253c12.397 12.724 7.851 23.675 5.318 27.796zm109.793-132.378-36.979 38.536-5.669-5.431c-.212-.232-.442-.451-.687-.658l-52.084-49.894c-3.017-2.89-7.798-2.783-10.686.228-2.887 3.014-2.784 7.798.229 10.685l47.937 45.923c-21.069 32.378-39.118 45.565-50.1 50.914l-79.126-78.628c-.021-.021-.044-.038-.064-.058-.114-.111-.233-.215-.354-.318-.073-.063-.145-.127-.22-.187-.11-.087-.225-.167-.339-.248-.091-.064-.181-.131-.274-.191-.104-.067-.213-.126-.32-.188-.106-.061-.211-.125-.32-.18-.112-.057-.227-.106-.342-.157-.106-.048-.21-.099-.318-.141-.14-.055-.283-.101-.427-.148-.084-.027-.167-.059-.252-.084-.175-.051-.353-.09-.532-.128-.056-.012-.111-.027-.166-.038-.188-.036-.379-.06-.571-.081-.05-.005-.099-.014-.149-.019-.174-.016-.35-.02-.527-.023-.072-.001-.143-.006-.216-.006-.145.001-.291.012-.437.022-.108.007-.215.012-.323.024-.114.013-.228.032-.342.05-.142.022-.283.045-.423.075-.031.007-.062.009-.093.016l-46.957 10.725c-.782.179-1.53.48-2.216.893l-31.27 18.83c-10.098 4.198-23.135.012-28.676-9.289-6.571-11.029-.34-25.471 16.665-38.628l38.815-30.017c.068-.053.138-.102.204-.158l5.3-4.099c8.274-6.393 24.02-9.562 44.309-8.925.662.021 1.189.052 1.622.076 4.414.263 6.18-.551 9.577-3.276l17.282-13.803 38.782 37.311c3.008 2.894 7.792 2.8 10.686-.206 2.894-3.008 2.801-7.792-.206-10.686l-51.649-49.691 36.988-38.546c2.461-2.569 5.794-4.024 9.387-4.099.097-.002.193-.003.291-.003 3.498 0 6.791 1.317 9.297 3.724l115.568 111.173c5.34 5.132 5.508 13.669.375 19.027z"/></g></svg>