<?xml version="1.0" encoding="iso-8859-1"?>
<!-- Generator: Adobe Illustrator 19.0.0, SVG Export Plug-In . SVG Version: 6.00 Build 0)  -->
<svg version="1.1" id="Capa_1" xmlns="http://www.w3.org/2000/svg" xmlns:xlink="http://www.w3.org/1999/xlink" x="0px" y="0px"
	 viewBox="0 0 480 480" style="enable-background:new 0 0 480 480;" xml:space="preserve">
<g>
	<g>
		<path d="M240,0C156.053,0,88,68.053,88,152c0,40.448,26.16,102.096,77.744,183.2l67.504,106.184
			c2.37,3.729,7.314,4.831,11.043,2.461c0.991-0.63,1.831-1.47,2.461-2.461L314.256,335.2C365.84,254.096,392,192.448,392,152
			C392,68.053,323.947,0,240,0z M300.76,326.632L240,422.184l-60.76-95.552C129.312,248.112,104,189.36,104,152
			c0.084-75.076,60.924-135.916,136-136c75.076,0.084,135.916,60.924,136,136C376,189.36,350.688,248.112,300.76,326.632z"/>
	</g>
</g>
<g>
	<g>
		<path d="M240,80c-39.764,0-72,32.235-72,72c0,36.616,58.568,129.792,65.248,140.296c1.469,2.308,4.016,3.705,6.752,3.704
			c2.736,0.001,5.283-1.396,6.752-3.704C253.432,281.792,312,188.616,312,152C312,112.235,279.765,80,240,80z M240,272.848
			c-20.208-33.128-56-96.8-56-120.848c0.035-30.913,25.087-55.965,56-56c30.913,0.035,55.965,25.087,56,56
			C296,176.064,260.208,239.72,240,272.848z"/>
	</g>
</g>
<g>
	<g>
		<path d="M272.48,408.896l-0.912,16c59.112,3.328,84.656,14.16,88.224,19.136C354.776,451.448,312.104,464,240,464
			s-114.776-12.544-119.792-20c3.568-4.968,29.08-15.792,88.104-19.128l-0.904-16C176.312,410.664,104,417.6,104,444
			c0,28.416,85.488,36,136,36c50.512,0,136-7.584,136-36C376,417.6,303.6,410.648,272.48,408.896z"/>
	</g>
</g>
<g>
	<g>
		<path d="M240,112c-22.091,0-40,17.909-40,40s17.909,40,40,40c22.08-0.026,39.974-17.92,40-40C280,129.909,262.091,112,240,112z
			 M240,176c-13.255,0-24-10.745-24-24s10.745-24,24-24s24,10.745,24,24S253.255,176,240,176z"/>
	</g>
</g>
<g>
</g>
<g>
</g>
<g>
</g>
<g>
</g>
<g>
</g>
<g>
</g>
<g>
</g>
<g>
</g>
<g>
</g>
<g>
</g>
<g>
</g>
<g>
</g>
<g>
</g>
<g>
</g>
<g>
</g>
</svg>
